<?xml version="1.0" encoding="UTF-8" standalone="no"?>
<!-- Created with Inkscape (http://www.inkscape.org/) -->

<svg
   width="61.17984mm"
   height="20.99992mm"
   viewBox="0 0 61.17984 20.99992"
   version="1.1"
   id="svg5"
   inkscape:version="1.3.2 (091e20e, 2023-11-25, custom)"
   sodipodi:docname="drawing.svg"
   xmlns:inkscape="http://www.inkscape.org/namespaces/inkscape"
   xmlns:sodipodi="http://sodipodi.sourceforge.net/DTD/sodipodi-0.dtd"
   xmlns="http://www.w3.org/2000/svg"
   xmlns:svg="http://www.w3.org/2000/svg">
  <sodipodi:namedview
     id="namedview7"
     pagecolor="#ffffff"
     bordercolor="#666666"
     borderopacity="1.0"
     inkscape:pageshadow="2"
     inkscape:pageopacity="0.0"
     inkscape:pagecheckerboard="0"
     inkscape:document-units="mm"
     showgrid="false"
     inkscape:zoom="1.8116734"
     inkscape:cx="48.573877"
     inkscape:cy="-2.7598793"
     inkscape:window-width="1832"
     inkscape:window-height="912"
     inkscape:window-x="44"
     inkscape:window-y="61"
     inkscape:window-maximized="0"
     inkscape:current-layer="layer1"
     inkscape:showpageshadow="2"
     inkscape:deskcolor="#d1d1d1" />
  <defs
     id="defs2" />
  <g
     inkscape:label="Layer 1"
     inkscape:groupmode="layer"
     id="layer1"
     transform="translate(322.46777,-139.7067)">
    <path
       id="rect3315"
       style="fill:#f7f700;fill-opacity:1;stroke-width:0.612603"
       d="m -322.46777,139.7067 v 13.65239 h 33.74059 V 139.7067 Z m 7.02696,2.48874 c 0.49596,0 0.96467,0.067 1.40457,0.20102 h 0.002 c 0.44326,0.13056 0.85905,0.32963 1.24592,0.59376 l 0.0605,0.0408 v 1.5472 l -0.23201,-0.21704 c -0.35775,-0.33319 -0.73684,-0.58121 -1.13896,-0.74415 h -0.002 c -0.39859,-0.16294 -0.82235,-0.24391 -1.27537,-0.24391 -0.8967,0 -1.55628,0.26779 -2.01951,0.80254 v 0.002 c -0.46289,0.53094 -0.70281,1.30914 -0.70281,2.35748 0,1.04465 0.23952,1.82422 0.70281,2.35903 0.4631,0.5312 1.12263,0.79892 2.01951,0.79892 0.45302,0 0.87678,-0.0831 1.27537,-0.24598 h 0.002 c 0.40212,-0.16293 0.78121,-0.40889 1.13896,-0.74207 l 0.23201,-0.21705 v 1.53531 l -0.0605,0.0408 c -0.39409,0.2677 -0.81417,0.46937 -1.2578,0.60358 -0.44021,0.13427 -0.90514,0.20102 -1.39475,0.20102 -1.2532,0 -2.26351,-0.38861 -2.99567,-1.16582 -0.73186,-0.78067 -1.094,-1.84542 -1.094,-3.16777 0,-1.32591 0.36185,-2.39107 1.094,-3.16828 0.73208,-0.78089 1.74231,-1.1715 2.99567,-1.1715 z m 6.25803,0.14624 h 1.43142 l 3.18947,8.37107 h -1.43711 l -0.73638,-2.07636 h -3.45303 l -0.73639,2.07636 h -1.45521 l 3.16209,-8.28115 z m 5.46272,0 h 4.92786 v 1.19941 h -3.55483 v 2.10736 h 3.2091 v 1.1989 h -3.2091 v 3.8654 h -1.37303 v -8.23258 z m 7.49617,0 h 1.43196 l 3.19103,8.37107 h -1.43714 l -0.73845,-2.07636 h -3.45096 l -0.73845,2.07636 h -1.45315 l 3.16209,-8.28115 z m -12.24576,1.61695 -1.28725,3.49075 h 2.57813 z m 12.96096,0 -1.28725,3.49075 h 2.57812 z" />
    <g
       aria-label="2024"
       id="text8197"
       style="font-size:10.5833px;line-height:1.25;word-spacing:0px;fill:#f7f700;stroke:#f7f700;stroke-width:0.264583">
      <path
         d="m -285.72874,149.7967 h 3.64318 v 0.8785 h -4.89891 v -0.8785 q 0.59428,-0.61494 1.61747,-1.64847 1.02836,-1.03869 1.2919,-1.33841 0.50126,-0.56327 0.69763,-0.95085 0.20154,-0.39274 0.20154,-0.76997 0,-0.61495 -0.43408,-1.00252 -0.42891,-0.38757 -1.12137,-0.38757 -0.49093,0 -1.0387,0.17053 -0.5426,0.17053 -1.16271,0.51676 v -1.0542 q 0.63045,-0.25321 1.17822,-0.3824 0.54776,-0.12919 1.00252,-0.12919 1.19889,0 1.91202,0.59944 0.71313,0.59945 0.71313,1.60197 0,0.47542 -0.18087,0.90433 -0.1757,0.42375 -0.64595,1.00252 -0.12919,0.14986 -0.82165,0.86816 -0.69246,0.71314 -1.95337,1.99987 z"
         id="path30079" />
      <path
         d="m -277.66207,143.64723 q -0.80615,0 -1.21439,0.79581 -0.40308,0.79065 -0.40308,2.38228 0,1.58646 0.40308,2.38228 0.40824,0.79064 1.21439,0.79064 0.81132,0 1.21439,-0.79064 0.40824,-0.79582 0.40824,-2.38228 0,-1.59163 -0.40824,-2.38228 -0.40307,-0.79581 -1.21439,-0.79581 z m 0,-0.82682 q 1.29707,0 1.9792,1.02836 0.68729,1.02319 0.68729,2.97655 0,1.94819 -0.68729,2.97655 -0.68213,1.02319 -1.9792,1.02319 -1.29707,0 -1.98437,-1.02319 -0.68213,-1.02836 -0.68213,-2.97655 0,-1.95336 0.68213,-2.97655 0.6873,-1.02836 1.98437,-1.02836 z"
         id="path30081" />
      <path
         d="m -272.2619,149.7967 h 3.64318 v 0.8785 h -4.89891 v -0.8785 q 0.59427,-0.61494 1.61746,-1.64847 1.02836,-1.03869 1.29191,-1.33841 0.50126,-0.56327 0.69763,-0.95085 0.20154,-0.39274 0.20154,-0.76997 0,-0.61495 -0.43408,-1.00252 -0.42892,-0.38757 -1.12138,-0.38757 -0.49092,0 -1.03869,0.17053 -0.5426,0.17053 -1.16272,0.51676 v -1.0542 q 0.63045,-0.25321 1.17822,-0.3824 0.54777,-0.12919 1.00252,-0.12919 1.19889,0 1.91202,0.59944 0.71314,0.59945 0.71314,1.60197 0,0.47542 -0.18087,0.90433 -0.1757,0.42375 -0.64596,1.00252 -0.12919,0.14986 -0.82165,0.86816 -0.69246,0.71314 -1.95336,1.99987 z"
         id="path30083" />
      <path
         d="m -263.55962,143.86944 -2.63549,4.1186 h 2.63549 z m -0.27388,-0.90951 h 1.31258 v 5.02811 h 1.1007 v 0.86816 h -1.1007 v 1.819 h -1.0387 v -1.819 h -3.48298 v -1.00769 z"
         id="path30085" />
    </g>
    <g
       aria-label="Professional Development"
       id="text10609"
       style="font-size:6.31938px;line-height:1.25;font-family:'Ubuntu Condensed';-inkscape-font-specification:'Ubuntu Condensed, Normal';word-spacing:0px;stroke:#f2f2f2;stroke-width:0.157985;fill:#f2f2f2">
      <path
         d="m -322.36096,155.14241 q 0.44236,-0.10743 0.86576,-0.10743 0.32861,0 0.59402,0.0822 0.27173,0.0758 0.46131,0.24645 0.19591,0.16431 0.29702,0.42972 0.10743,0.26542 0.10743,0.63826 0,0.37916 -0.10743,0.6509 -0.10743,0.26541 -0.30333,0.43603 -0.19591,0.16431 -0.47396,0.24014 -0.27173,0.0758 -0.60666,0.0758 h -0.26541 v 1.62408 h -0.56875 z m 0.56875,2.19282 h 0.2275 q 0.21485,0 0.38548,-0.0442 0.17694,-0.0505 0.29701,-0.15798 0.12007,-0.10743 0.18326,-0.27805 0.0632,-0.17063 0.0632,-0.4234 0,-0.25278 -0.0632,-0.4234 -0.0632,-0.17694 -0.17694,-0.27805 -0.10743,-0.10743 -0.26542,-0.15167 -0.15798,-0.0442 -0.34756,-0.0442 -0.16431,0 -0.30333,0.019 z"
         id="path30106"
         style="fill:#f2f2f2;stroke:#f2f2f2" />
      <path
         d="m -317.89948,156.63378 q -0.20222,-0.0885 -0.455,-0.0885 -0.23382,0 -0.43604,0.0822 v 2.83108 h -0.54346 v -3.17233 q 0.18326,-0.0885 0.41708,-0.14534 0.24013,-0.0632 0.52451,-0.0632 0.15166,0 0.30333,0.019 0.15166,0.019 0.28437,0.0695 z"
         id="path30108"
         style="fill:#f2f2f2;stroke:#f2f2f2" />
      <path
         d="m -315.1948,157.80286 q 0,0.39181 -0.0695,0.71409 -0.0695,0.31597 -0.21486,0.54347 -0.13902,0.2275 -0.3602,0.35389 -0.21486,0.12638 -0.51187,0.12638 -0.29701,0 -0.51819,-0.12638 -0.22118,-0.12639 -0.36653,-0.35389 -0.13902,-0.2275 -0.20853,-0.54347 -0.0695,-0.32228 -0.0695,-0.71409 0,-0.38548 0.0695,-0.70777 0.0695,-0.32228 0.20853,-0.54978 0.14535,-0.23382 0.36653,-0.36021 0.22118,-0.12638 0.51819,-0.12638 0.29701,0 0.51187,0.12638 0.22118,0.12639 0.3602,0.36021 0.14535,0.2275 0.21486,0.54978 0.0695,0.32229 0.0695,0.70777 z m -0.56874,0 q 0,-0.27805 -0.0316,-0.50555 -0.0316,-0.23381 -0.10111,-0.39812 -0.0695,-0.17062 -0.18326,-0.25909 -0.11375,-0.0948 -0.27173,-0.0948 -0.16431,0 -0.27805,0.0948 -0.10743,0.0885 -0.18327,0.25909 -0.0695,0.16431 -0.10111,0.39812 -0.0316,0.2275 -0.0316,0.50555 0,0.27806 0.0316,0.51187 0.0316,0.2275 0.10111,0.39181 0.0758,0.1643 0.18327,0.25909 0.11374,0.0885 0.27805,0.0885 0.15798,0 0.27173,-0.0885 0.11375,-0.0948 0.18326,-0.25909 0.0695,-0.16431 0.10111,-0.39181 0.0316,-0.23381 0.0316,-0.51187 z"
         id="path30110"
         style="fill:#f2f2f2;stroke:#f2f2f2" />
      <path
         d="m -313.43169,154.5547 q 0.18326,0 0.32229,0.0379 0.13902,0.0379 0.22749,0.0821 l -0.11375,0.42972 q -0.0885,-0.0442 -0.18326,-0.0632 -0.0948,-0.0253 -0.20222,-0.0253 -0.14534,0 -0.24013,0.0506 -0.0948,0.0506 -0.14535,0.13903 -0.0505,0.0885 -0.0695,0.21486 -0.019,0.12007 -0.019,0.25909 v 0.46132 h 0.85312 v 0.46763 h -0.85312 v 2.85004 h -0.54347 v -3.77899 q 0,-0.53714 0.24014,-0.82784 0.24014,-0.29701 0.72673,-0.29701 z"
         id="path30112"
         style="fill:#f2f2f2;stroke:#f2f2f2" />
      <path
         d="m -312.15518,157.96085 q 0.006,0.24014 0.0442,0.44236 0.0379,0.1959 0.12006,0.34756 0.0885,0.14535 0.2275,0.2275 0.14535,0.0821 0.36653,0.0821 0.18326,0 0.33492,-0.0505 0.15799,-0.0569 0.2275,-0.0948 l 0.10111,0.43603 q -0.0822,0.0569 -0.27805,0.12007 -0.18958,0.0695 -0.455,0.0695 -0.34756,0 -0.5877,-0.12638 -0.23382,-0.12639 -0.38548,-0.35389 -0.14535,-0.2275 -0.20854,-0.54347 -0.0632,-0.31596 -0.0632,-0.69513 0,-0.91631 0.30333,-1.33971 0.30334,-0.42339 0.80257,-0.42339 0.56242,0 0.79624,0.42339 0.23381,0.4234 0.23381,1.18805 0,0.0695 0,0.14534 0,0.0695 -0.006,0.14535 z m 0.54979,-1.44082 q -0.27174,0 -0.39812,0.27173 -0.12007,0.27174 -0.14535,0.72673 h 1.00478 q 0,-0.46131 -0.0948,-0.72673 -0.0948,-0.27173 -0.36652,-0.27173 z"
         id="path30114"
         style="fill:#f2f2f2;stroke:#f2f2f2" />
      <path
         d="m -309.31147,159.07306 q 0.24014,0 0.36021,-0.13271 0.12639,-0.13902 0.12639,-0.3602 0,-0.13903 -0.0506,-0.23382 -0.0505,-0.10111 -0.13271,-0.17694 -0.0821,-0.0758 -0.18958,-0.13271 -0.10743,-0.0632 -0.21486,-0.13271 -0.10743,-0.0632 -0.20854,-0.14534 -0.10111,-0.0885 -0.18326,-0.1959 -0.0758,-0.11375 -0.12639,-0.25278 -0.0442,-0.14534 -0.0442,-0.33492 0,-0.41076 0.25277,-0.66354 0.2591,-0.25277 0.69514,-0.25277 0.18326,0 0.34756,0.0506 0.16431,0.0442 0.27173,0.10111 l -0.12006,0.43604 q -0.11375,-0.0632 -0.2275,-0.0948 -0.11375,-0.0316 -0.24646,-0.0316 -0.20222,0 -0.32229,0.12007 -0.12006,0.11375 -0.12006,0.33493 0,0.12638 0.0442,0.22117 0.0442,0.0885 0.11375,0.16431 0.0758,0.0695 0.16431,0.1327 0.0948,0.0632 0.1959,0.12007 0.12006,0.0695 0.23381,0.15167 0.12007,0.0822 0.20854,0.1959 0.0948,0.10743 0.15167,0.25909 0.0569,0.14535 0.0569,0.35389 0,0.43604 -0.25909,0.70145 -0.25278,0.26541 -0.74569,0.26541 -0.25277,0 -0.45499,-0.0695 -0.20222,-0.0695 -0.30334,-0.12639 l 0.11375,-0.44867 q 0.0948,0.0506 0.25278,0.11375 0.1643,0.0632 0.3602,0.0632 z"
         id="path30116"
         style="fill:#f2f2f2;stroke:#f2f2f2" />
      <path
         d="m -307.15656,159.07306 q 0.24014,0 0.3602,-0.13271 0.12639,-0.13902 0.12639,-0.3602 0,-0.13903 -0.0506,-0.23382 -0.0506,-0.10111 -0.13271,-0.17694 -0.0822,-0.0758 -0.18958,-0.13271 -0.10743,-0.0632 -0.21486,-0.13271 -0.10743,-0.0632 -0.20854,-0.14534 -0.10111,-0.0885 -0.18326,-0.1959 -0.0758,-0.11375 -0.12639,-0.25278 -0.0442,-0.14534 -0.0442,-0.33492 0,-0.41076 0.25277,-0.66354 0.25909,-0.25277 0.69513,-0.25277 0.18326,0 0.34757,0.0506 0.1643,0.0442 0.27173,0.10111 l -0.12007,0.43604 q -0.11375,-0.0632 -0.22749,-0.0948 -0.11375,-0.0316 -0.24646,-0.0316 -0.20222,0 -0.32229,0.12007 -0.12007,0.11375 -0.12007,0.33493 0,0.12638 0.0442,0.22117 0.0442,0.0885 0.11375,0.16431 0.0758,0.0695 0.1643,0.1327 0.0948,0.0632 0.1959,0.12007 0.12007,0.0695 0.23382,0.15167 0.12007,0.0822 0.20854,0.1959 0.0948,0.10743 0.15166,0.25909 0.0569,0.14535 0.0569,0.35389 0,0.43604 -0.2591,0.70145 -0.25277,0.26541 -0.74568,0.26541 -0.25278,0 -0.455,-0.0695 -0.20222,-0.0695 -0.30333,-0.12639 l 0.11375,-0.44867 q 0.0948,0.0506 0.25278,0.11375 0.1643,0.0632 0.3602,0.0632 z"
         id="path30118"
         style="fill:#f2f2f2;stroke:#f2f2f2" />
      <path
         d="m -304.9195,159.45854 h -0.54347 v -3.31767 h 0.54347 z m -0.27174,-3.90537 q -0.14534,0 -0.25277,-0.0948 -0.10111,-0.10111 -0.10111,-0.26541 0,-0.1643 0.10111,-0.25909 0.10743,-0.10111 0.25277,-0.10111 0.14535,0 0.24646,0.10111 0.10743,0.0948 0.10743,0.25909 0,0.1643 -0.10743,0.26541 -0.10111,0.0948 -0.24646,0.0948 z"
         id="path30120"
         style="fill:#f2f2f2;stroke:#f2f2f2" />
      <path
         d="m -301.80406,157.80286 q 0,0.39181 -0.0695,0.71409 -0.0695,0.31597 -0.21486,0.54347 -0.13903,0.2275 -0.3602,0.35389 -0.21486,0.12638 -0.51187,0.12638 -0.29701,0 -0.51819,-0.12638 -0.22118,-0.12639 -0.36653,-0.35389 -0.13902,-0.2275 -0.20854,-0.54347 -0.0695,-0.32228 -0.0695,-0.71409 0,-0.38548 0.0695,-0.70777 0.0695,-0.32228 0.20854,-0.54978 0.14535,-0.23382 0.36653,-0.36021 0.22118,-0.12638 0.51819,-0.12638 0.29701,0 0.51187,0.12638 0.22117,0.12639 0.3602,0.36021 0.14535,0.2275 0.21486,0.54978 0.0695,0.32229 0.0695,0.70777 z m -0.56874,0 q 0,-0.27805 -0.0316,-0.50555 -0.0316,-0.23381 -0.10111,-0.39812 -0.0695,-0.17062 -0.18326,-0.25909 -0.11375,-0.0948 -0.27173,-0.0948 -0.16431,0 -0.27806,0.0948 -0.10743,0.0885 -0.18326,0.25909 -0.0695,0.16431 -0.10111,0.39812 -0.0316,0.2275 -0.0316,0.50555 0,0.27806 0.0316,0.51187 0.0316,0.2275 0.10111,0.39181 0.0758,0.1643 0.18326,0.25909 0.11375,0.0885 0.27806,0.0885 0.15798,0 0.27173,-0.0885 0.11375,-0.0948 0.18326,-0.25909 0.0695,-0.16431 0.10111,-0.39181 0.0316,-0.23381 0.0316,-0.51187 z"
         id="path30122"
         style="fill:#f2f2f2;stroke:#f2f2f2" />
      <path
         d="m -301.00782,156.23566 q 0.23382,-0.0695 0.50555,-0.11375 0.27173,-0.0506 0.49923,-0.0506 0.24646,0 0.44868,0.0695 0.20222,0.0632 0.34124,0.22118 0.14535,0.15798 0.22118,0.42971 0.0822,0.26542 0.0822,0.66354 v 2.00324 h -0.54347 v -1.95901 q 0,-0.49291 -0.12639,-0.72041 -0.12639,-0.22749 -0.47395,-0.22749 -0.18326,0 -0.41076,0.0632 v 2.84372 h -0.54347 z"
         id="path30124"
         style="fill:#f2f2f2;stroke:#f2f2f2" />
      <path
         d="m -297.91133,156.21038 q 0.1643,-0.0695 0.34756,-0.10743 0.18326,-0.0442 0.39812,-0.0442 0.44236,0 0.72041,0.27805 0.27806,0.27173 0.27806,0.85311 v 2.19915 q -0.2275,0.0632 -0.46764,0.10111 -0.23382,0.0379 -0.46131,0.0379 -0.2275,0 -0.42972,-0.0569 -0.1959,-0.0569 -0.34757,-0.18326 -0.14534,-0.12639 -0.23381,-0.31597 -0.0885,-0.1959 -0.0885,-0.47395 0,-0.2591 0.0758,-0.44868 0.0822,-0.1959 0.22118,-0.32229 0.13902,-0.13271 0.3286,-0.1959 0.18958,-0.0695 0.41076,-0.0695 0.20854,0 0.46132,0.0505 v -0.30333 q 0,-0.36652 -0.14535,-0.51187 -0.13902,-0.14534 -0.40444,-0.14534 -0.14534,0 -0.27805,0.0316 -0.12639,0.0253 -0.27173,0.0885 z m 0.25909,2.2813 q 0,0.29069 0.15167,0.42971 0.15166,0.13903 0.42971,0.13903 0.17063,0 0.37285,-0.0442 v -1.05534 q -0.18958,-0.0506 -0.37285,-0.0506 -0.12006,0 -0.22749,0.0316 -0.10743,0.0253 -0.18958,0.0948 -0.0758,0.0632 -0.12007,0.17694 -0.0442,0.10743 -0.0442,0.27806 z"
         id="path30126"
         style="fill:#f2f2f2;stroke:#f2f2f2" />
      <path
         d="m -294.35985,159.52174 q -0.46764,-0.0126 -0.66986,-0.2275 -0.20222,-0.22118 -0.20222,-0.69513 v -3.94962 l 0.54347,-0.0948 v 4.05704 q 0,0.22118 0.0885,0.32229 0.0885,0.0948 0.30965,0.13271 z"
         id="path30128"
         style="fill:#f2f2f2;stroke:#f2f2f2" />
      <path
         d="m -289.65193,157.26572 q 0,0.61298 -0.13271,1.04269 -0.12638,0.4234 -0.37284,0.68882 -0.24014,0.26541 -0.5877,0.38548 -0.34125,0.12007 -0.76465,0.12007 -0.42972,0 -0.90999,-0.11375 v -4.24662 q 0.24014,-0.0506 0.46764,-0.0822 0.22749,-0.0316 0.43603,-0.0316 0.42972,0 0.77097,0.12006 0.34756,0.12007 0.5877,0.38549 0.24646,0.26541 0.37284,0.69513 0.13271,0.4234 0.13271,1.03638 z m -0.60666,0 q 0,-0.46764 -0.0695,-0.79624 -0.0695,-0.32861 -0.21486,-0.53715 -0.14535,-0.20854 -0.38548,-0.30333 -0.23382,-0.0948 -0.56243,-0.0948 -0.0885,0 -0.17694,0.006 -0.0885,0.006 -0.18326,0.019 v 3.41247 q 0.0948,0.0126 0.18326,0.019 0.0885,0.006 0.17062,0.006 0.33493,0 0.56875,-0.0948 0.23381,-0.0948 0.37916,-0.29701 0.15166,-0.20854 0.22118,-0.53715 0.0695,-0.32861 0.0695,-0.80256 z"
         id="path30130"
         style="fill:#f2f2f2;stroke:#f2f2f2" />
      <path
         d="m -288.43862,157.96085 q 0.006,0.24014 0.0442,0.44236 0.0379,0.1959 0.12006,0.34756 0.0885,0.14535 0.2275,0.2275 0.14535,0.0821 0.36653,0.0821 0.18326,0 0.33492,-0.0505 0.15799,-0.0569 0.2275,-0.0948 l 0.10111,0.43603 q -0.0822,0.0569 -0.27805,0.12007 -0.18958,0.0695 -0.455,0.0695 -0.34756,0 -0.5877,-0.12638 -0.23382,-0.12639 -0.38548,-0.35389 -0.14535,-0.2275 -0.20854,-0.54347 -0.0632,-0.31596 -0.0632,-0.69513 0,-0.91631 0.30334,-1.33971 0.30333,-0.42339 0.80256,-0.42339 0.56242,0 0.79624,0.42339 0.23382,0.4234 0.23382,1.18805 0,0.0695 0,0.14534 0,0.0695 -0.006,0.14535 z m 0.54979,-1.44082 q -0.27174,0 -0.39812,0.27173 -0.12007,0.27174 -0.14535,0.72673 h 1.00478 q 0,-0.46131 -0.0948,-0.72673 -0.0948,-0.27173 -0.36652,-0.27173 z"
         id="path30132"
         style="fill:#f2f2f2;stroke:#f2f2f2" />
      <path
         d="m -285.31686,158.82028 q 0.0758,-0.25277 0.15799,-0.59402 0.0885,-0.34124 0.17062,-0.70145 0.0822,-0.36652 0.15166,-0.72673 0.0758,-0.3602 0.12639,-0.65721 h 0.54347 q -0.0822,0.41708 -0.1959,0.87839 -0.10743,0.46132 -0.2275,0.90999 -0.11375,0.44236 -0.23382,0.84048 -0.12006,0.39812 -0.22117,0.68881 h -0.56243 q -0.10111,-0.29069 -0.22118,-0.68881 -0.12007,-0.39812 -0.24013,-0.84048 -0.11375,-0.44867 -0.2275,-0.90999 -0.10743,-0.46131 -0.18958,-0.87839 h 0.57506 q 0.0506,0.29701 0.12007,0.65721 0.0758,0.36021 0.15166,0.72673 0.0822,0.36021 0.16431,0.70145 0.0821,0.34125 0.15798,0.59402 z"
         id="path30134"
         style="fill:#f2f2f2;stroke:#f2f2f2" />
      <path
         d="m -283.26938,157.96085 q 0.006,0.24014 0.0442,0.44236 0.0379,0.1959 0.12007,0.34756 0.0885,0.14535 0.2275,0.2275 0.14534,0.0821 0.36652,0.0821 0.18326,0 0.33493,-0.0505 0.15798,-0.0569 0.2275,-0.0948 l 0.10111,0.43603 q -0.0822,0.0569 -0.27806,0.12007 -0.18958,0.0695 -0.45499,0.0695 -0.34757,0 -0.5877,-0.12638 -0.23382,-0.12639 -0.38549,-0.35389 -0.14534,-0.2275 -0.20854,-0.54347 -0.0632,-0.31596 -0.0632,-0.69513 0,-0.91631 0.30333,-1.33971 0.30333,-0.42339 0.80256,-0.42339 0.56243,0 0.79624,0.42339 0.23382,0.4234 0.23382,1.18805 0,0.0695 0,0.14534 0,0.0695 -0.006,0.14535 z m 0.54978,-1.44082 q -0.27173,0 -0.39812,0.27173 -0.12007,0.27174 -0.14535,0.72673 h 1.00479 q 0,-0.46131 -0.0948,-0.72673 -0.0948,-0.27173 -0.36653,-0.27173 z"
         id="path30136"
         style="fill:#f2f2f2;stroke:#f2f2f2" />
      <path
         d="m -280.02755,159.52174 q -0.46763,-0.0126 -0.66986,-0.2275 -0.20222,-0.22118 -0.20222,-0.69513 v -3.94962 l 0.54347,-0.0948 v 4.05704 q 0,0.22118 0.0885,0.32229 0.0885,0.0948 0.30965,0.13271 z"
         id="path30138"
         style="fill:#f2f2f2;stroke:#f2f2f2" />
      <path
         d="m -277.22176,157.80286 q 0,0.39181 -0.0695,0.71409 -0.0695,0.31597 -0.21486,0.54347 -0.13903,0.2275 -0.3602,0.35389 -0.21486,0.12638 -0.51187,0.12638 -0.29701,0 -0.51819,-0.12638 -0.22118,-0.12639 -0.36653,-0.35389 -0.13902,-0.2275 -0.20854,-0.54347 -0.0695,-0.32228 -0.0695,-0.71409 0,-0.38548 0.0695,-0.70777 0.0695,-0.32228 0.20854,-0.54978 0.14535,-0.23382 0.36653,-0.36021 0.22118,-0.12638 0.51819,-0.12638 0.29701,0 0.51187,0.12638 0.22117,0.12639 0.3602,0.36021 0.14535,0.2275 0.21486,0.54978 0.0695,0.32229 0.0695,0.70777 z m -0.56874,0 q 0,-0.27805 -0.0316,-0.50555 -0.0316,-0.23381 -0.10111,-0.39812 -0.0695,-0.17062 -0.18326,-0.25909 -0.11375,-0.0948 -0.27173,-0.0948 -0.16431,0 -0.27806,0.0948 -0.10743,0.0885 -0.18326,0.25909 -0.0695,0.16431 -0.10111,0.39812 -0.0316,0.2275 -0.0316,0.50555 0,0.27806 0.0316,0.51187 0.0316,0.2275 0.10111,0.39181 0.0758,0.1643 0.18326,0.25909 0.11375,0.0885 0.27806,0.0885 0.15798,0 0.27173,-0.0885 0.11375,-0.0948 0.18326,-0.25909 0.0695,-0.16431 0.10111,-0.39181 0.0316,-0.23381 0.0316,-0.51187 z"
         id="path30140"
         style="fill:#f2f2f2;stroke:#f2f2f2" />
      <path
         d="m -275.88837,158.95931 q 0.18326,0.10111 0.3918,0.10111 0.15798,0 0.27805,-0.0632 0.12007,-0.0632 0.20222,-0.20854 0.0885,-0.14535 0.13271,-0.38548 0.0442,-0.24014 0.0442,-0.59403 0,-0.68249 -0.17695,-0.97318 -0.17062,-0.29701 -0.54978,-0.29701 -0.0695,0 -0.15167,0.0126 -0.0821,0.006 -0.17062,0.0316 z m 0,1.66832 h -0.54347 v -4.39829 q 0.17694,-0.0758 0.39812,-0.12007 0.2275,-0.0506 0.46132,-0.0506 0.34756,0 0.59402,0.12006 0.25277,0.12007 0.40444,0.34757 0.15798,0.22118 0.2275,0.54979 0.0758,0.32228 0.0758,0.73936 0,0.84048 -0.27173,1.28284 -0.26542,0.44235 -0.87208,0.44235 -0.14534,0 -0.25909,-0.0316 -0.11375,-0.0253 -0.21486,-0.0758 z"
         id="path30142"
         style="fill:#f2f2f2;stroke:#f2f2f2" />
      <path
         d="m -273.47437,156.23566 q 0.22117,-0.0695 0.48027,-0.11375 0.25909,-0.0506 0.47395,-0.0506 0.22118,0 0.39812,0.0569 0.18327,0.0569 0.32229,0.18958 0.16431,-0.10743 0.35389,-0.17694 0.18958,-0.0695 0.41708,-0.0695 0.22749,0 0.41076,0.0695 0.18958,0.0632 0.32228,0.22118 0.13271,0.15798 0.20854,0.42971 0.0758,0.26542 0.0758,0.66354 v 2.00324 h -0.54347 v -1.95901 q 0,-0.49291 -0.11375,-0.72041 -0.11375,-0.22749 -0.42972,-0.22749 -0.12006,0 -0.24645,0.0442 -0.12007,0.0442 -0.2275,0.12007 0.0506,0.14535 0.0758,0.32861 0.0253,0.18326 0.0253,0.41076 v 2.00324 h -0.54347 v -1.95901 q 0,-0.49291 -0.11375,-0.72041 -0.11374,-0.22749 -0.42971,-0.22749 -0.16431,0 -0.37285,0.0632 v 2.84372 h -0.54346 z"
         id="path30144"
         style="fill:#f2f2f2;stroke:#f2f2f2" />
      <path
         d="m -268.6906,157.96085 q 0.006,0.24014 0.0442,0.44236 0.0379,0.1959 0.12007,0.34756 0.0885,0.14535 0.2275,0.2275 0.14534,0.0821 0.36652,0.0821 0.18326,0 0.33493,-0.0505 0.15798,-0.0569 0.2275,-0.0948 l 0.10111,0.43603 q -0.0822,0.0569 -0.27806,0.12007 -0.18958,0.0695 -0.45499,0.0695 -0.34757,0 -0.5877,-0.12638 -0.23382,-0.12639 -0.38549,-0.35389 -0.14534,-0.2275 -0.20853,-0.54347 -0.0632,-0.31596 -0.0632,-0.69513 0,-0.91631 0.30333,-1.33971 0.30333,-0.42339 0.80256,-0.42339 0.56243,0 0.79624,0.42339 0.23382,0.4234 0.23382,1.18805 0,0.0695 0,0.14534 0,0.0695 -0.006,0.14535 z m 0.54978,-1.44082 q -0.27173,0 -0.39812,0.27173 -0.12007,0.27174 -0.14534,0.72673 h 1.00478 q 0,-0.46131 -0.0948,-0.72673 -0.0948,-0.27173 -0.36653,-0.27173 z"
         id="path30146"
         style="fill:#f2f2f2;stroke:#f2f2f2" />
      <path
         d="m -266.30821,156.23566 q 0.23382,-0.0695 0.50556,-0.11375 0.27173,-0.0506 0.49923,-0.0506 0.24645,0 0.44867,0.0695 0.20222,0.0632 0.34125,0.22118 0.14534,0.15798 0.22118,0.42971 0.0822,0.26542 0.0822,0.66354 v 2.00324 h -0.54347 v -1.95901 q 0,-0.49291 -0.12639,-0.72041 -0.12638,-0.22749 -0.47395,-0.22749 -0.18326,0 -0.41076,0.0632 v 2.84372 h -0.54347 z"
         id="path30148"
         style="fill:#f2f2f2;stroke:#f2f2f2" />
      <path
         d="m -262.75672,156.14087 h 0.83416 v 0.46763 h -0.83416 v 1.8263 q 0,0.34125 0.12007,0.48028 0.12638,0.1327 0.33492,0.1327 0.10743,0 0.20222,-0.0316 0.10111,-0.0316 0.17063,-0.0758 l 0.10743,0.43604 q -0.2591,0.15167 -0.54979,0.15167 -0.46763,0 -0.70145,-0.2591 -0.2275,-0.26541 -0.2275,-0.87207 v -3.14706 l 0.54347,-0.0948 z"
         id="path30150"
         style="fill:#f2f2f2;stroke:#f2f2f2" />
    </g>
  </g>
</svg>
